<svg width="20" height="17" viewBox="0 0 20 17" fill="none" xmlns="http://www.w3.org/2000/svg">
<path d="M11.885 0.61536C11.9817 0.709531 12.395 1.06511 12.735 1.39633C14.8733 3.33821 18.3733 8.40396 19.4417 11.0554C19.6133 11.458 19.9767 12.4761 20 13.02C20 13.5412 19.88 14.038 19.6367 14.5121C19.2967 15.1031 18.7617 15.5772 18.13 15.837C17.6917 16.0042 16.38 16.264 16.3567 16.264C14.9217 16.5238 12.59 16.6667 10.0133 16.6667C7.55833 16.6667 5.32167 16.5238 3.865 16.3111C3.84167 16.2867 2.21167 16.027 1.65333 15.7428C0.633333 15.2216 0 14.2036 0 13.1141V13.02C0.025 12.3104 0.658333 10.8183 0.681667 10.8183C1.75167 8.30979 5.08 3.36094 7.29167 1.37198C7.29167 1.37198 7.86 0.81182 8.215 0.568274C8.725 0.188342 9.35667 0 9.98833 0C10.6933 0 11.35 0.212697 11.885 0.61536Z" fill="black"/>
</svg>
