<svg width="182" height="217" viewBox="0 0 182 217" fill="none" xmlns="http://www.w3.org/2000/svg">
<rect x="13.8779" y="52.8072" width="83.6137" height="83.6137" rx="41.7768" fill="#66A865"/>
<path d="M76.5882 80.6785C76.5882 69.1339 85.947 59.7751 97.4916 59.7751C97.4916 71.3198 88.1329 80.6785 76.5882 80.6785Z" fill="#66A865"/>
<path d="M43.7899 73.2626C33.0707 72.2519 25.2004 62.7429 26.2111 52.0237C36.9303 53.0344 44.8006 62.5434 43.7899 73.2626Z" fill="#66A865"/>
<path d="M27.4666 108.143C19.2231 115.069 6.92589 114 5.59216e-05 105.757C8.24359 98.8309 20.5408 99.8991 27.4666 108.143Z" fill="#66A865"/>
<path d="M105.016 114.801C96.7721 121.727 84.4749 120.659 77.549 112.415C85.7926 105.489 98.0898 106.558 105.016 114.801Z" fill="#66A865"/>
<rect x="147.662" y="107.319" width="83.6137" height="83.6137" rx="41.7768" transform="rotate(119.838 147.662 107.319)" fill="#66A865"/>
<path d="M92.2844 147.849C102.299 153.593 105.76 166.367 100.016 176.381C90.0022 170.637 86.5404 157.863 92.2844 147.849Z" fill="#66A865"/>
<path d="M115.036 123.088C121.246 114.292 133.41 112.197 142.206 118.407C135.996 127.202 123.831 129.298 115.036 123.088Z" fill="#66A865"/>
<path d="M92.9012 91.5738C90.995 80.9771 98.0401 70.8416 108.637 68.9354C110.543 79.5321 103.498 89.6676 92.9012 91.5738Z" fill="#66A865"/>
<path d="M48.5412 155.53C46.635 144.933 53.6801 134.798 64.2767 132.891C66.1829 143.488 59.1379 153.624 48.5412 155.53Z" fill="#66A865"/>
<rect x="187.378" y="77.5313" width="83.6137" height="83.6137" rx="41.7768" transform="rotate(119.838 187.378 77.5313)" fill="#66A865"/>
<path d="M132.001 118.061C142.015 123.805 145.477 136.58 139.733 146.594C129.718 140.85 126.257 128.076 132.001 118.061Z" fill="#66A865"/>
<path d="M154.752 93.3006C160.962 84.5052 173.126 82.4094 181.922 88.6194C175.712 97.4148 163.548 99.5106 154.752 93.3006Z" fill="#66A865"/>
<path d="M132.617 61.7867C130.711 51.19 137.756 41.0544 148.353 39.1482C150.259 49.7449 143.214 59.8805 132.617 61.7867Z" fill="#66A865"/>
<path d="M88.2575 125.743C86.3513 115.146 93.3963 105.01 103.993 103.104C105.899 113.701 98.8542 123.836 88.2575 125.743Z" fill="#66A865"/>
<rect x="166.599" y="39.3478" width="78.2645" height="78.2645" rx="39.1041" transform="rotate(119.838 166.599 39.3478)" fill="#66A865"/>
<path d="M114.763 77.285C124.137 82.6615 127.377 94.6188 122.001 103.992C112.627 98.6159 109.387 86.6586 114.763 77.285Z" fill="#66A865"/>
<path d="M136.059 54.1082C141.872 45.8755 153.258 43.9138 161.491 49.7265C155.678 57.9592 144.292 59.9209 136.059 54.1082Z" fill="#66A865"/>
<path d="M115.341 24.6105C113.557 14.6918 120.151 5.20461 130.07 3.42037C131.854 13.3391 125.26 22.8263 115.341 24.6105Z" fill="#66A865"/>
<path d="M73.8188 84.4749C72.0346 74.5562 78.6289 65.069 88.5477 63.2848C90.3319 73.2035 83.7376 82.6907 73.8188 84.4749Z" fill="#66A865"/>
<path fill-rule="evenodd" clip-rule="evenodd" d="M15.4606 83.6843C14.48 87.2352 13.9561 90.9757 13.9561 94.8385C13.9561 97.1064 14.1367 99.3321 14.4842 101.502C9.45836 101.019 4.24935 102.477 0.0781812 105.981C4.61622 111.383 11.4604 113.704 17.9592 112.713C24.0229 125.515 36.3973 134.744 51.0653 136.384C51.498 137.667 51.993 138.93 52.5487 140.167C49.1825 144.403 47.5861 150.011 48.6193 155.754C52.7128 155.018 56.2763 153.054 58.9986 150.309C62.0073 153.8 65.649 156.849 69.8738 159.272C76.4139 163.023 83.5427 164.811 90.5783 164.821C92.1089 169.628 95.3736 173.898 100.094 176.606C102.54 172.342 103.317 167.577 102.63 163.068C112.544 160.111 121.385 153.491 126.939 143.808C128.444 141.184 129.633 138.466 130.518 135.697C132.13 140.232 135.308 144.236 139.811 146.819C142.257 142.555 143.033 137.79 142.346 133.281C152.261 130.324 161.102 123.704 166.656 114.021C169.906 108.354 171.682 102.246 172.105 96.1394C175.97 94.8857 179.476 92.4179 182 88.8438C178.779 86.5694 175.105 85.4091 171.438 85.284C170.85 82.2489 169.928 79.2833 168.688 76.4461C167.773 79.7419 166.434 82.978 164.654 86.0815C156.534 100.238 141.389 107.848 126.134 107.036C125.908 107.462 125.674 107.887 125.432 108.309C113.944 128.338 88.3946 135.261 68.3661 123.773C61.8253 120.022 56.6822 114.77 53.1216 108.701C36.276 108.449 21.8453 98.2326 15.4606 83.6843Z" fill="#458244"/>
<path d="M91.7269 126.482H103.311L112.752 216.657H82.1371L91.7269 126.482Z" fill="#93642D"/>
<path d="M91.644 126.482H103.394L108.368 175.017H86.6404L91.644 126.482Z" fill="#714D22"/>
<path fill-rule="evenodd" clip-rule="evenodd" d="M88.4734 164.907C70.357 151.863 68.1549 132.265 69.4223 123.709L77.6072 124.922C76.6682 131.26 78.3274 147.406 93.308 158.192L88.4734 164.907Z" fill="#714D22"/>
<path fill-rule="evenodd" clip-rule="evenodd" d="M102.156 151.668C120.273 138.625 122.475 119.026 121.207 110.471L113.022 111.683C113.962 118.022 112.302 134.167 97.3217 144.954L102.156 151.668Z" fill="#714D22"/>
<rect x="133.578" y="94.8681" width="59.9143" height="59.9143" rx="29.9357" transform="rotate(119.838 133.578 94.8681)" fill="#66A865"/>
<path d="M93.8964 123.91C101.072 128.026 103.553 137.18 99.4369 144.356C92.261 140.24 89.7805 131.086 93.8964 123.91Z" fill="#66A865"/>
<path d="M110.199 106.168C114.649 99.8653 123.365 98.3635 129.668 102.813C125.218 109.116 116.502 110.618 110.199 106.168Z" fill="#66A865"/>
<path d="M94.3382 83.586C92.9723 75.9929 98.0205 68.7301 105.614 67.3642C106.98 74.9574 101.931 82.2201 94.3382 83.586Z" fill="#66A865"/>
<path d="M62.5516 129.414C61.1857 121.821 66.2339 114.559 73.8271 113.193C75.193 120.786 70.1448 128.049 62.5516 129.414Z" fill="#66A865"/>
<rect x="35.4548" y="-0.973905" width="78.2644" height="78.2644" rx="39.1041" transform="rotate(8.46442 35.4548 -0.973905)" fill="#83C082"/>
<path d="M89.6736 33.4702C91.2642 22.7818 101.218 15.4066 111.907 16.9972C110.316 27.6856 100.362 35.0608 89.6736 33.4702Z" fill="#83C082"/>
<path d="M60.3298 22.0855C50.5449 19.6729 44.5685 9.78485 46.9811 -4.76579e-05C56.766 2.41259 62.7424 12.3006 60.3298 22.0855Z" fill="#83C082"/>
<path d="M40.4115 52.1294C31.8251 57.4058 20.5872 54.7225 15.3109 46.1362C23.8972 40.8598 35.1351 43.5431 40.4115 52.1294Z" fill="#83C082"/>
<path d="M111.291 68.9787C102.705 74.255 91.4669 71.5718 86.1905 62.9854C94.7768 57.7091 106.015 60.3924 111.291 68.9787Z" fill="#83C082"/>
</svg>
