<svg width="40" height="48" viewBox="0 0 40 48" fill="none" xmlns="http://www.w3.org/2000/svg">
<path fill-rule="evenodd" clip-rule="evenodd" d="M21.293 27.6002H25.3233C26.2784 27.6002 27.0705 26.8237 27.0705 25.859C27.0705 24.8708 26.2784 24.0943 25.3233 24.0943H21.293V20.0237C21.293 19.059 20.5242 18.2826 19.569 18.2826C18.6139 18.2826 17.8218 19.059 17.8218 20.0237V24.0943H13.8148C12.8597 24.0943 12.0676 24.8708 12.0676 25.859C12.0676 26.8237 12.8597 27.6002 13.8148 27.6002H17.8218V31.6708C17.8218 32.6355 18.6139 33.412 19.569 33.412C20.5242 33.412 21.293 32.6355 21.293 31.6708V27.6002ZM37.266 16.5308C37.8136 16.5245 38.4099 16.5176 38.9517 16.5176C39.5341 16.5176 40 16.9882 40 17.5765V36.4941C40 42.3294 35.3174 47.0588 29.5166 47.0588H10.9959C4.93885 47.0588 0 42.0941 0 35.9765V10.6118C0 4.77647 4.70588 0 10.5067 0H22.947C23.5527 0 24.0186 0.494118 24.0186 1.08235V8.65882C24.0186 12.9647 27.5364 16.4941 31.7997 16.5176C32.7955 16.5176 33.6734 16.5251 34.4416 16.5316C35.0393 16.5367 35.5707 16.5412 36.0396 16.5412C36.3712 16.5412 36.8011 16.5362 37.266 16.5308ZM37.9059 13.0972C35.9909 13.1043 33.7335 13.0972 32.1097 13.0807C29.5331 13.0807 27.4108 10.9372 27.4108 8.33485V2.13249C27.4108 1.11838 28.6292 0.614846 29.3258 1.34661C30.5858 2.66987 32.3171 4.48851 34.0407 6.29916C35.762 8.10732 37.4757 9.9075 38.7049 11.1984C39.3852 11.9113 38.8866 13.0948 37.9059 13.0972Z" fill="#66A865"/>
</svg>
