<svg width="243" height="34" viewBox="0 0 243 34" fill="none" xmlns="http://www.w3.org/2000/svg">
<path fill-rule="evenodd" clip-rule="evenodd" d="M15.4896 3.31449C15.7291 3.09948 16.046 2.98678 16.3703 3.00124C23.2265 3.20648 28.9566 8.1837 29.9951 14.8359C30.0016 14.8757 30.0016 14.9162 29.9951 14.9559C30.0174 15.2706 29.911 15.5812 29.6994 15.8188C29.4879 16.0564 29.1885 16.2015 28.8676 16.222L17.3484 16.9816C16.9674 17.0154 16.5896 16.8901 16.3078 16.6364C16.0259 16.3827 15.8661 16.0242 15.8677 15.6489L15.0934 4.33397V4.14739C15.1075 3.82916 15.25 3.5295 15.4896 3.31449ZM14.6995 19.9405L24.6445 19.3274H24.7516C25.1804 19.3344 25.5887 19.5083 25.8868 19.8107C26.1849 20.1132 26.3482 20.5194 26.341 20.94C25.9475 26.6732 21.7443 31.4634 16.0242 32.6975C10.3041 33.9316 4.44026 31.3133 1.63167 26.271C0.805826 24.8187 0.283954 23.2192 0.096681 21.5664C0.024047 21.0767 -0.0077544 20.5819 0.00159298 20.0871C0.0205236 13.9908 4.36092 8.72875 10.4341 7.43941C11.1693 7.3018 11.9064 7.66887 12.2272 8.33234C12.3857 8.57127 12.4267 8.86381 12.4454 9.1499C12.5505 10.761 12.6589 12.3588 12.7669 13.9503C12.8598 15.3193 12.9523 16.6836 13.0422 18.048C13.0376 18.3694 13.0881 18.6893 13.1917 18.9942C13.4354 19.5943 14.042 19.975 14.6995 19.9405Z" fill="#66A865"/>
<path fill-rule="evenodd" clip-rule="evenodd" d="M221.017 0H234.985C240.133 0 243 2.96667 243 8.05V25.2667C243 30.4333 240.133 33.3333 234.985 33.3333H221.017C215.95 33.3333 213 30.4333 213 25.2667V8.05C213 2.96667 215.95 0 221.017 0ZM221.467 7.76666V7.74999H226.448C227.167 7.74999 227.75 8.33332 227.75 9.04832C227.75 9.78332 227.167 10.3667 226.448 10.3667H221.467C220.748 10.3667 220.167 9.78332 220.167 9.06666C220.167 8.34999 220.748 7.76666 221.467 7.76666ZM221.467 17.9H234.533C235.25 17.9 235.833 17.3166 235.833 16.6C235.833 15.8833 235.25 15.2983 234.533 15.2983H221.467C220.748 15.2983 220.167 15.8833 220.167 16.6C220.167 17.3166 220.748 17.9 221.467 17.9ZM221.467 25.5167H234.533C235.198 25.45 235.7 24.8817 235.7 24.2167C235.7 23.5333 235.198 22.9667 234.533 22.9H221.467C220.967 22.85 220.483 23.0833 220.217 23.5167C219.95 23.9333 219.95 24.4833 220.217 24.9167C220.483 25.3333 220.967 25.5833 221.467 25.5167Z" fill="#D9D9D9"/>
</svg>
