<svg width="167" height="13" viewBox="0 0 167 13" fill="none" xmlns="http://www.w3.org/2000/svg">
<path d="M6.08625 12.0385C6.01375 11.9679 5.70375 11.7012 5.44875 11.4528C3.845 9.99635 1.22 6.19703 0.41875 4.20848C0.29 3.90648 0.0175 3.14296 0 2.73502C0 2.34413 0.09 1.97151 0.2725 1.61593C0.5275 1.17267 0.92875 0.817097 1.4025 0.62226C1.73125 0.496834 2.715 0.301997 2.7325 0.301997C3.80875 0.10716 5.5575 0 7.49 0C9.33125 0 11.0087 0.10716 12.1012 0.266683C12.1187 0.284949 13.3413 0.479786 13.76 0.692889C14.525 1.08378 15 1.8473 15 2.66439V2.73502C14.9812 3.26717 14.5062 4.38626 14.4887 4.38626C13.6862 6.26766 11.19 9.9793 9.53125 11.471C9.53125 11.471 9.105 11.8911 8.83875 12.0738C8.45625 12.3587 7.9825 12.5 7.50875 12.5C6.98 12.5 6.4875 12.3405 6.08625 12.0385Z" fill="black"/>
<path d="M160.914 0.46152C160.986 0.532148 161.296 0.798831 161.551 1.04725C163.155 2.50365 165.78 6.30297 166.581 8.29153C166.71 8.59353 166.983 9.35704 167 9.76498C167 10.1559 166.91 10.5285 166.727 10.8841C166.472 11.3273 166.071 11.6829 165.597 11.8777C165.269 12.0032 164.285 12.198 164.267 12.198C163.191 12.3928 161.443 12.5 159.51 12.5C157.669 12.5 155.991 12.3928 154.899 12.2333C154.881 12.2151 153.659 12.0202 153.24 11.8071C152.475 11.4162 152 10.6527 152 9.83561V9.76498C152.019 9.23283 152.494 8.11374 152.511 8.11374C153.314 6.23235 155.81 2.5207 157.469 1.02898C157.469 1.02898 157.895 0.608865 158.161 0.426206C158.544 0.141257 159.017 0 159.491 0C160.02 0 160.512 0.159523 160.914 0.46152Z" fill="black"/>
</svg>
