<svg width="68" height="81" viewBox="0 0 68 81" fill="none" xmlns="http://www.w3.org/2000/svg">
<path d="M30.4665 41.3154H37.7256L43.6418 80.8917H24.457L30.4665 41.3154Z" fill="#93642D"/>
<path d="M30.4145 41.3154H37.6262L40.7617 62.6167H27.279L30.4145 41.3154Z" fill="#714D22"/>
<rect x="5.25269" y="16.4301" width="31.6472" height="31.6472" rx="15.7705" fill="#66A865"/>
<path d="M28.9881 26.9794C28.9881 22.6099 32.5303 19.0676 36.8999 19.0676C36.8999 23.4372 33.3576 26.9794 28.9881 26.9794Z" fill="#66A865"/>
<path d="M16.5742 24.1726C12.517 23.79 9.53817 20.1909 9.92073 16.1338C13.9779 16.5163 16.9567 20.1154 16.5742 24.1726Z" fill="#66A865"/>
<path d="M10.3959 37.3744C7.27578 39.9958 2.62138 39.5915 -4.18623e-07 36.4713C3.12012 33.85 7.77453 34.2543 10.3959 37.3744Z" fill="#66A865"/>
<path d="M39.7477 39.8946C36.6275 42.5159 31.9731 42.1116 29.3517 38.9915C32.4719 36.3701 37.1263 36.7744 39.7477 39.8946Z" fill="#66A865"/>
<rect x="55.889" y="37.0623" width="31.6472" height="31.6472" rx="15.7705" transform="rotate(119.838 55.889 37.0623)" fill="#66A865"/>
<path d="M34.9289 52.4027C38.7192 54.5767 40.0294 59.4118 37.8554 63.2022C34.0651 61.0281 32.7548 56.193 34.9289 52.4027Z" fill="#66A865"/>
<path d="M43.5402 43.031C45.8906 39.702 50.4947 38.9087 53.8237 41.2592C51.4732 44.5882 46.8692 45.3814 43.5402 43.031Z" fill="#66A865"/>
<path d="M35.1624 31.1031C34.4409 27.0923 37.1074 23.2561 41.1182 22.5346C41.8397 26.5454 39.1732 30.3816 35.1624 31.1031Z" fill="#66A865"/>
<path d="M18.3724 55.3101C17.6509 51.2993 20.3174 47.463 24.3282 46.7416C25.0497 50.7523 22.3832 54.5886 18.3724 55.3101Z" fill="#66A865"/>
<rect x="69.9783" y="29.8166" width="31.6472" height="31.6472" rx="15.7705" transform="rotate(119.838 69.9783 29.8166)" fill="#66A865"/>
<path d="M49.0182 45.1569C52.8086 47.331 54.1188 52.1661 51.9447 55.9564C48.1544 53.7824 46.8442 48.9473 49.0182 45.1569Z" fill="#66A865"/>
<path d="M57.6295 35.785C59.98 32.456 64.5841 31.6627 67.9131 34.0132C65.5626 37.3422 60.9585 38.1354 57.6295 35.785Z" fill="#66A865"/>
<path d="M32.4618 48.0641C31.7403 44.0533 34.4068 40.2171 38.4175 39.4956C39.139 43.5063 36.4725 47.3426 32.4618 48.0641Z" fill="#66A865"/>
<path d="M42.974 6.41695C50.0697 10.4869 52.5226 19.5384 48.4526 26.6341C44.3827 33.7298 35.3311 36.1826 28.2355 32.1127C21.1398 28.0427 18.687 18.9912 22.7569 11.8955C26.8268 4.79985 35.8784 2.34701 42.974 6.41695Z" fill="#66A865"/>
<path d="M37.0342 27.9572C40.5821 29.9921 41.8085 34.5179 39.7735 38.0657C36.2257 36.0308 34.9992 31.505 37.0342 27.9572Z" fill="#66A865"/>
<path d="M45.0945 19.185C47.2946 16.069 51.6042 15.3265 54.7202 17.5266C52.5201 20.6426 48.2106 21.3851 45.0945 19.185Z" fill="#66A865"/>
<path d="M37.2527 8.02039C36.5774 4.26621 39.0733 0.675397 42.8275 7.67756e-05C43.5028 3.75425 41.0069 7.34507 37.2527 8.02039Z" fill="#66A865"/>
<path d="M21.5369 30.6784C20.8615 26.9243 23.3574 23.3334 27.1116 22.6581C27.7869 26.4123 25.291 30.0031 21.5369 30.6784Z" fill="#66A865"/>
<rect x="56.4877" y="25.2451" width="29.6225" height="29.6225" rx="14.7616" transform="rotate(119.838 56.4877 25.2451)" fill="#66A865"/>
<path d="M36.8686 39.6039C40.4165 41.6389 41.6429 46.1646 39.6079 49.7125C36.0601 47.6775 34.8336 43.1517 36.8686 39.6039Z" fill="#66A865"/>
<path d="M44.9289 30.8318C47.129 27.7158 51.4385 26.9733 54.5545 29.1733C52.3545 32.2894 48.0449 33.0319 44.9289 30.8318Z" fill="#66A865"/>
<path d="M37.0871 19.6669C36.4117 15.9127 38.9076 12.3219 42.6618 11.6466C43.3371 15.4007 40.8412 18.9916 37.0871 19.6669Z" fill="#66A865"/>
<path d="M21.3713 42.3252C20.6959 38.571 23.1918 34.9802 26.946 34.3049C27.6213 38.059 25.1254 41.6499 21.3713 42.3252Z" fill="#66A865"/>
<path fill-rule="evenodd" clip-rule="evenodd" d="M57.9952 30.6107C57.7264 32.8755 56.8216 35.0912 55.2549 36.9755L54.6965 37.6472C50.942 42.163 44.6223 43.2886 39.6231 40.6663C39.4093 40.9781 39.1791 41.2827 38.9327 41.5792L38.3742 42.2508C34.0567 47.4439 26.3468 48.1536 21.1537 43.836C17.7682 41.0212 16.2882 36.7645 16.8644 32.7035C14.8539 34.0308 12.445 34.8034 9.85568 34.8034C8.30234 34.8034 6.81394 34.5254 5.43754 34.0163C5.46562 34.2684 5.49963 34.5188 5.53941 34.7671C3.63715 34.5844 1.66558 35.1361 0.0868172 36.4625C1.80444 38.5069 4.39491 39.3853 6.85468 39.0106C9.14972 43.8558 13.8333 47.349 19.385 47.9698C19.5488 48.4554 19.7361 48.9333 19.9465 49.4017C18.6724 51.0049 18.0682 53.1274 18.4592 55.3013C20.0086 55.0226 21.3573 54.279 22.3877 53.2402C23.5265 54.5614 24.9048 55.7154 26.5039 56.6326C28.9793 58.0524 31.6775 58.7292 34.3404 58.7329C34.9197 60.5523 36.1554 62.1685 37.9422 63.1934C38.8679 61.5795 39.1619 59.7762 38.9017 58.0695C42.4144 57.0218 45.571 54.7594 47.6845 51.4684C47.9331 51.4805 48.1817 51.4867 48.4299 51.4871C49.0092 53.3065 50.2449 54.9227 52.0317 55.9476C52.9574 54.3337 53.2514 52.5303 52.9912 50.8237C56.7439 49.7045 60.0901 47.1988 62.1923 43.5338C63.4225 41.3891 64.0948 39.0772 64.2549 36.7659C65.7176 36.2914 67.0449 35.3573 68 34.0045C66.7808 33.1437 65.3905 32.7045 64.0025 32.6572C63.7176 31.1867 63.2255 29.7593 62.5391 28.4218C61.203 29.4296 59.6644 30.1832 57.9952 30.6107Z" fill="#458244"/>
<rect x="13.2584" y="30.0777" width="27.4798" height="27.4798" rx="13.6938" transform="rotate(-37.5969 13.2584 30.0777)" fill="#66A865"/>
<path d="M35.1765 24.7612C32.8617 21.755 33.4222 17.4414 36.4284 15.1266C38.7432 18.1328 38.1828 22.4464 35.1765 24.7612Z" fill="#66A865"/>
<path d="M25.1489 29.4066C22.155 31.2928 18.1989 30.3947 16.3128 27.4008C19.3067 25.5147 23.2628 26.4127 25.1489 29.4066Z" fill="#66A865"/>
<path d="M27.8922 41.7624C27.1343 45.2188 23.7179 47.4063 20.2615 46.6484C21.0194 43.192 24.4358 41.0045 27.8922 41.7624Z" fill="#66A865"/>
<path d="M49.4209 27.9467C48.663 31.4031 45.2467 33.5907 41.7903 32.8328C42.5482 29.3764 45.9645 27.1888 49.4209 27.9467Z" fill="#66A865"/>
<rect x="17.5958" y="14.1853" width="18.1448" height="18.1448" rx="9.04198" transform="rotate(-28.4045 17.5958 14.1853)" fill="#83C082"/>
<path d="M31.5002 11.8448C31.0245 9.23353 32.7556 6.73095 35.3669 6.25517C35.8427 8.86647 34.1115 11.369 31.5002 11.8448Z" fill="#83C082"/>
<path d="M25.9018 23.3452C25.0432 25.5182 22.5856 26.5837 20.4126 25.7251C21.2712 23.5521 23.7288 22.4866 25.9018 23.3452Z" fill="#83C082"/>
</svg>
