<svg width="30" height="36" viewBox="0 0 30 36" fill="none" xmlns="http://www.w3.org/2000/svg">
<path fill-rule="evenodd" clip-rule="evenodd" d="M26.836 11.9935C26.836 14.2099 27.4218 15.5162 28.7109 17.0216C29.6878 18.1307 30 19.5543 30 21.0989C30 22.6416 29.4931 24.1061 28.4776 25.2952C27.1482 26.7206 25.2733 27.6306 23.3598 27.7888C20.587 28.0252 17.8123 28.2242 15.0009 28.2242C12.1877 28.2242 9.41479 28.1052 6.64192 27.7888C4.72669 27.6306 2.8518 26.7206 1.52412 25.2952C0.508623 24.1061 0 22.6416 0 21.0989C0 19.5543 0.313943 18.1307 1.2891 17.0216C2.61853 15.5162 3.16574 14.2099 3.16574 11.9935V11.2417C3.16574 8.27354 3.90588 6.33268 5.42999 4.4327C7.696 1.66182 11.3283 0 14.922 0H15.0798C18.7507 0 22.5004 1.7418 24.7279 4.63176C26.173 6.49264 26.836 8.35174 26.836 11.2417V11.9935ZM9.83587 31.8722C9.83587 30.9835 10.6514 30.5765 11.4056 30.4023C12.2878 30.2157 17.6634 30.2157 18.5456 30.4023C19.2998 30.5765 20.1153 30.9835 20.1153 31.8722C20.0715 32.7182 19.5751 33.4683 18.8894 33.9446C18.0002 34.6378 16.9566 35.0768 15.8657 35.2349C15.2624 35.3131 14.6695 35.3149 14.0873 35.2349C12.9946 35.0768 11.951 34.6378 11.0636 33.9428C10.3761 33.4683 9.87972 32.7182 9.83587 31.8722Z" fill="white"/>
</svg>
