<svg width="430" height="157" viewBox="0 0 430 157" fill="none" xmlns="http://www.w3.org/2000/svg">
<rect y="56.3016" width="430" height="100" fill="white"/>
<circle cx="215" cy="56.3016" r="50" fill="#F2F3EE"/>
<path fill-rule="evenodd" clip-rule="evenodd" d="M108.49 76.6161C108.729 76.4011 109.046 76.2884 109.37 76.3029C116.227 76.5081 121.957 81.4853 122.995 88.1376C123.002 88.1773 123.002 88.2178 122.995 88.2575C123.017 88.5723 122.911 88.8828 122.699 89.1204C122.488 89.358 122.188 89.5031 121.868 89.5236L110.348 90.2833C109.967 90.3171 109.59 90.1917 109.308 89.938C109.026 89.6843 108.866 89.3258 108.868 88.9505L108.093 77.6356V77.449C108.108 77.1308 108.25 76.8311 108.49 76.6161ZM107.699 93.2421L117.645 92.6291H117.752C118.18 92.6361 118.589 92.8099 118.887 93.1124C119.185 93.4148 119.348 93.821 119.341 94.2417C118.948 99.9748 114.744 104.765 109.024 105.999C103.304 107.233 97.4403 104.615 94.6317 99.5726C93.8058 98.1204 93.284 96.5209 93.0967 94.8681C93.024 94.3783 92.9922 93.8836 93.0016 93.3887C93.0205 87.2924 97.3609 82.0304 103.434 80.741C104.169 80.6034 104.906 80.9705 105.227 81.634C105.386 81.8729 105.427 82.1654 105.445 82.4515C105.551 84.0627 105.659 85.6604 105.767 87.252C105.86 88.6209 105.952 89.9853 106.042 91.3496C106.038 91.671 106.088 91.9909 106.192 92.2959C106.435 92.8959 107.042 93.2766 107.699 93.2421Z" fill="#D9D9D9"/>
<path fill-rule="evenodd" clip-rule="evenodd" d="M314.017 73.3016H327.985C333.133 73.3016 336 76.2683 336 81.3516V98.5683C336 103.735 333.133 106.635 327.985 106.635H314.017C308.95 106.635 306 103.735 306 98.5683V81.3516C306 76.2683 308.95 73.3016 314.017 73.3016ZM314.467 81.0683V81.0516H319.448C320.167 81.0516 320.75 81.635 320.75 82.35C320.75 83.085 320.167 83.6683 319.448 83.6683H314.467C313.748 83.6683 313.167 83.085 313.167 82.3683C313.167 81.6516 313.748 81.0683 314.467 81.0683ZM314.467 91.2016H327.533C328.25 91.2016 328.833 90.6183 328.833 89.9016C328.833 89.1849 328.25 88.5999 327.533 88.5999H314.467C313.748 88.5999 313.167 89.1849 313.167 89.9016C313.167 90.6183 313.748 91.2016 314.467 91.2016ZM314.467 98.8183H327.533C328.198 98.7516 328.7 98.1833 328.7 97.5183C328.7 96.835 328.198 96.2683 327.533 96.2016H314.467C313.967 96.1516 313.483 96.385 313.217 96.8183C312.95 97.235 312.95 97.785 313.217 98.2183C313.483 98.635 313.967 98.885 314.467 98.8183Z" fill="#D9D9D9"/>
<path d="M210.364 41.1766H217.599L223.495 80.6202H204.375L210.364 41.1766Z" fill="#93642D"/>
<path d="M210.312 41.1766H217.5L220.625 62.4065H207.188L210.312 41.1766Z" fill="#714D22"/>
<rect x="185.235" y="16.375" width="31.541" height="31.541" rx="15.7705" fill="#66A865"/>
<path d="M208.891 26.8887C208.891 22.5338 212.421 19.0034 216.776 19.0034C216.776 23.3583 213.246 26.8887 208.891 26.8887Z" fill="#66A865"/>
<path d="M196.519 24.0912C192.475 23.71 189.506 20.1229 189.887 16.0794C193.931 16.4607 196.9 20.0477 196.519 24.0912Z" fill="#66A865"/>
<path d="M190.361 37.2489C187.251 39.8615 182.613 39.4585 180 36.3488C183.11 33.7363 187.748 34.1392 190.361 37.2489Z" fill="#66A865"/>
<path d="M219.614 39.7606C216.505 42.3732 211.866 41.9702 209.253 38.8606C212.363 36.248 217.002 36.6509 219.614 39.7606Z" fill="#66A865"/>
<rect x="235.702" y="36.9379" width="31.541" height="31.541" rx="15.7705" transform="rotate(119.838 235.702 36.9379)" fill="#66A865"/>
<path d="M214.812 52.2267C218.589 54.3935 219.895 59.2124 217.728 62.99C213.951 60.8232 212.645 56.0044 214.812 52.2267Z" fill="#66A865"/>
<path d="M223.394 42.8863C225.737 39.5685 230.325 38.7779 233.643 41.1205C231.301 44.4383 226.712 45.2289 223.394 42.8863Z" fill="#66A865"/>
<path d="M215.044 30.9986C214.325 27.0013 216.983 23.178 220.98 22.4589C221.699 26.4562 219.042 30.2796 215.044 30.9986Z" fill="#66A865"/>
<path d="M198.311 55.1244C197.592 51.1271 200.249 47.3037 204.247 46.5846C204.966 50.5819 202.308 54.4053 198.311 55.1244Z" fill="#66A865"/>
<rect x="249.744" y="29.7164" width="31.541" height="31.541" rx="15.7705" transform="rotate(119.838 249.744 29.7164)" fill="#66A865"/>
<path d="M228.854 45.0053C232.631 47.1721 233.937 51.9909 231.77 55.7686C227.993 53.6018 226.687 48.7829 228.854 45.0053Z" fill="#66A865"/>
<path d="M237.436 35.665C239.779 32.3472 244.367 31.5566 247.685 33.8992C245.343 37.217 240.754 38.0076 237.436 35.665Z" fill="#66A865"/>
<path d="M212.353 47.9029C211.634 43.9056 214.291 40.0823 218.289 39.3632C219.008 43.3605 216.35 47.1839 212.353 47.9029Z" fill="#66A865"/>
<path d="M222.83 6.39542C229.902 10.4517 232.346 19.4729 228.29 26.5447C224.234 33.6166 215.213 36.0612 208.141 32.0049C201.069 27.9486 198.624 18.9275 202.681 11.8556C206.737 4.78374 215.758 2.33913 222.83 6.39542Z" fill="#66A865"/>
<path d="M216.91 27.8634C220.446 29.8915 221.668 34.4021 219.64 37.938C216.104 35.9099 214.882 31.3993 216.91 27.8634Z" fill="#66A865"/>
<path d="M224.943 19.1205C227.136 16.015 231.431 15.275 234.537 17.4677C232.344 20.5732 228.049 21.3132 224.943 19.1205Z" fill="#66A865"/>
<path d="M217.128 7.99336C216.455 4.25178 218.942 0.673009 222.684 -4.55523e-05C223.357 3.74153 220.869 7.3203 217.128 7.99336Z" fill="#66A865"/>
<path d="M201.465 30.5756C200.792 26.8341 203.279 23.2553 207.021 22.5822C207.694 26.3238 205.206 29.9026 201.465 30.5756Z" fill="#66A865"/>
<rect x="236.298" y="25.1602" width="29.5232" height="29.5232" rx="14.7616" transform="rotate(119.838 236.298 25.1602)" fill="#66A865"/>
<path d="M216.745 39.4709C220.281 41.4991 221.503 46.0096 219.475 49.5456C215.939 47.5174 214.717 43.0068 216.745 39.4709Z" fill="#66A865"/>
<path d="M224.778 30.7281C226.971 27.6225 231.266 26.8825 234.372 29.0752C232.179 32.1808 227.884 32.9208 224.778 30.7281Z" fill="#66A865"/>
<path d="M216.963 19.6009C216.29 15.8593 218.777 12.2806 222.519 11.6075C223.192 15.3491 220.704 18.9278 216.963 19.6009Z" fill="#66A865"/>
<path d="M201.3 42.1832C200.627 38.4416 203.114 34.8628 206.856 34.1898C207.529 37.9314 205.041 41.5101 201.3 42.1832Z" fill="#66A865"/>
<path fill-rule="evenodd" clip-rule="evenodd" d="M237.801 30.5078C237.533 32.765 236.631 34.9733 235.07 36.8514L234.513 37.5208C230.771 42.0214 224.473 43.1432 219.49 40.5297C219.277 40.8404 219.048 41.1441 218.802 41.4396L218.246 42.109C213.942 47.2846 206.258 47.9919 201.083 43.6888C197.709 40.8834 196.234 36.6411 196.808 32.5936C194.804 33.9165 192.403 34.6865 189.823 34.6865C188.275 34.6865 186.791 34.4094 185.419 33.9021C185.447 34.1533 185.481 34.4028 185.521 34.6504C183.625 34.4682 181.66 35.0181 180.087 36.34C181.798 38.3776 184.38 39.2531 186.832 38.8796C189.119 43.7085 193.787 47.19 199.32 47.8088C199.483 48.2927 199.67 48.769 199.88 49.2359C198.61 50.8336 198.008 52.9491 198.397 55.1156C199.941 54.8378 201.286 54.0968 202.313 53.0615C203.448 54.3782 204.821 55.5284 206.415 56.4425C208.882 57.8575 211.571 58.5321 214.225 58.5357C214.803 60.349 216.034 61.9598 217.815 62.9813C218.738 61.3728 219.031 59.5755 218.771 57.8745C222.272 56.8304 225.418 54.5756 227.524 51.2956C227.772 51.3077 228.02 51.3139 228.267 51.3142C228.845 53.1275 230.076 54.7383 231.857 55.7598C232.78 54.1513 233.073 52.354 232.813 50.653C236.554 49.5376 239.889 47.0404 241.984 43.3876C243.21 41.2501 243.88 38.946 244.039 36.6424C245.497 36.1695 246.82 35.2386 247.772 33.8903C246.557 33.0324 245.171 32.5947 243.788 32.5475C243.504 31.0819 243.013 29.6593 242.329 28.3263C240.998 29.3307 239.464 30.0818 237.801 30.5078Z" fill="#458244"/>
<rect x="193.214" y="29.9766" width="27.3876" height="27.3876" rx="13.6938" transform="rotate(-37.5969 193.214 29.9766)" fill="#66A865"/>
<path d="M215.059 24.678C212.752 21.6819 213.31 17.3828 216.306 15.0757C218.613 18.0719 218.055 22.3709 215.059 24.678Z" fill="#66A865"/>
<path d="M205.065 29.3077C202.081 31.1875 198.138 30.2925 196.258 27.3086C199.242 25.4288 203.185 26.3239 205.065 29.3077Z" fill="#66A865"/>
<path d="M207.799 41.622C207.043 45.0668 203.638 47.247 200.194 46.4917C200.949 43.0469 204.354 40.8667 207.799 41.622Z" fill="#66A865"/>
<path d="M229.255 27.8527C228.5 31.2975 225.095 33.4778 221.65 32.7224C222.406 29.2776 225.81 27.0974 229.255 27.8527Z" fill="#66A865"/>
<rect x="197.537" y="14.1377" width="18.084" height="18.084" rx="9.04198" transform="rotate(-28.4045 197.537 14.1377)" fill="#83C082"/>
<path d="M211.395 11.805C210.92 9.20242 212.646 6.70825 215.248 6.23406C215.723 8.8366 213.997 11.3308 211.395 11.805Z" fill="#83C082"/>
<path d="M205.815 23.2668C204.959 25.4325 202.51 26.4944 200.344 25.6387C201.2 23.473 203.649 22.411 205.815 23.2668Z" fill="#83C082"/>
</svg>
