<svg width="95" height="30" viewBox="0 0 95 30" fill="none" xmlns="http://www.w3.org/2000/svg">
<path fill-rule="evenodd" clip-rule="evenodd" d="M19.5582 3.15151C19.7662 3.96273 19.8508 4.77569 19.932 5.55924L20.0081 6.27187C20.299 8.65019 20.299 20.3342 20.0081 22.7299L19.932 23.4684L19.9306 23.4823C19.8583 24.2235 19.7835 24.9905 19.57 25.8087C19.0034 27.7442 17.493 29 15.7779 29C15.7238 29 15.6697 29 15.6088 28.9983C14.6616 28.9983 13.6316 28.4171 13.048 27.9103L7.3599 23.1727H4.43888C2.18426 23.1727 0.533472 21.5416 0.234097 19.0179C-0.110946 16.4943 -0.0432906 12.1649 0.234097 9.87135C0.560534 7.48265 2.28913 5.82734 4.43888 5.82734H7.3599L12.9398 1.15891C13.613 0.574272 14.8003 -0.00344392 15.739 1.54588e-05C17.422 1.54588e-05 18.9916 1.2108 19.5582 3.15151ZM24.4045 5.24959C25.0794 4.77739 26.0029 4.9469 26.4646 5.63012C28.0985 8.03612 29 11.1859 29 14.5C29 17.8141 28.0985 20.9638 26.4646 23.3698C26.1872 23.7763 25.734 24.0202 25.2485 24.0202C24.9458 24.0202 24.6532 23.9268 24.4045 23.7503C23.7347 23.273 23.569 22.3285 24.0341 21.6436C25.328 19.7375 26.0401 17.2 26.0401 14.5C26.0401 11.7982 25.328 9.26247 24.0341 7.35635C23.569 6.6714 23.7347 5.72699 24.4045 5.24959Z" fill="black"/>
<path fill-rule="evenodd" clip-rule="evenodd" d="M92.3633 9.9946C92.3633 11.8416 92.8515 12.9302 93.9258 14.1847C94.7398 15.1089 95 16.2953 95 17.5824C95 18.868 94.5776 20.0884 93.7314 21.0793C92.6235 22.2672 91.0611 23.0255 89.4665 23.1573C87.1558 23.3543 84.8436 23.5202 82.5007 23.5202C80.1564 23.5202 77.8457 23.421 75.5349 23.1573C73.9389 23.0255 72.3765 22.2672 71.2701 21.0793C70.4239 20.0884 70 18.868 70 17.5824C70 16.2953 70.2616 15.1089 71.0742 14.1847C72.1821 12.9302 72.6381 11.8416 72.6381 9.9946V9.36809C72.6381 6.89462 73.2549 5.27723 74.525 3.69392C76.4133 1.38485 79.4402 0 82.435 0H82.5665C85.6255 0 88.7504 1.4515 90.6065 3.8598C91.8109 5.41053 92.3633 6.95979 92.3633 9.36809V9.9946ZM78.1966 26.56C78.1966 25.8194 78.8762 25.4803 79.5046 25.3351C80.2398 25.1796 84.7195 25.1796 85.4547 25.3351C86.0831 25.4803 86.7628 25.8194 86.7628 26.56C86.7262 27.265 86.3126 27.8901 85.7411 28.287C85.0001 28.8646 84.1305 29.2305 83.2214 29.3623C82.7186 29.4275 82.2246 29.4289 81.7394 29.3623C80.8288 29.2305 79.9592 28.8646 79.2196 28.2855C78.6467 27.8901 78.2331 27.265 78.1966 26.56Z" fill="black"/>
</svg>
