<svg width="25" height="30" viewBox="0 0 25 30" fill="none" xmlns="http://www.w3.org/2000/svg">
<path d="M0.923039 12.1725C1.0643 12.0275 1.59766 11.4075 2.0945 10.8975C5.00731 7.69 12.6059 2.44 16.583 0.8375C17.187 0.58 18.7141 0.035 19.53 0C20.3117 0 21.057 0.18 21.7681 0.545C22.6547 1.055 23.3658 1.8575 23.7555 2.805C24.0063 3.4625 24.396 5.43 24.396 5.465C24.7857 7.6175 25 11.115 25 14.98C25 18.6625 24.7857 22.0175 24.4666 24.2025C24.4301 24.2375 24.0404 26.6825 23.6142 27.52C22.8324 29.05 21.3054 30 19.6712 30H19.53C18.4657 29.9625 16.2275 29.0125 16.2275 28.9775C12.4647 27.3725 5.0414 22.38 2.05796 19.0625C2.05796 19.0625 1.21773 18.21 0.852411 17.6775C0.282513 16.9125 0 15.965 0 15.0175C0 13.96 0.319045 12.975 0.923039 12.1725Z" fill="#F2F3EE"/>
</svg>
